<!DOCTYPE svg PUBLIC "-//W3C//DTD SVG 1.1//EN" "http://www.w3.org/Graphics/SVG/1.1/DTD/svg11.dtd">
<!-- Uploaded to: SVG Repo, www.svgrepo.com, Transformed by: SVG Repo Mixer Tools -->
<svg width="256px" height="256px" viewBox="-7.2 -7.2 62.40 62.40" xmlns="http://www.w3.org/2000/svg" fill="#fafafa" stroke="#fafafa" stroke-width="0.9120000000000001">
<g id="SVGRepo_bgCarrier" stroke-width="0"/>
<g id="SVGRepo_tracerCarrier" stroke-linecap="round" stroke-linejoin="round"/>
<g id="SVGRepo_iconCarrier">
<defs>
<style>.a{fill:none;stroke:#fafafa;stroke-linecap:round;stroke-linejoin:round;}</style>
</defs>
<path class="a" d="M6.0055,11.6756H41.9912A1.5088,1.5088,0,0,1,43.5,13.1844V34.8189a1.5055,1.5055,0,0,1-1.5055,1.5055H6.0088A1.5088,1.5088,0,0,1,4.5,34.8157V13.1811A1.5055,1.5055,0,0,1,6.0055,11.6756Z"/>
<ellipse class="a" cx="15.2778" cy="23.7869" rx="7.3548" ry="7.3391"/>
<circle class="a" cx="27.985" cy="30.3756" r="1.4175"/>
<circle class="a" cx="33.3493" cy="30.3756" r="1.4175"/>
<circle class="a" cx="38.7227" cy="30.3748" r="1.4175"/>
<path class="a" d="M28.178,17.247H38.5262a1.614,1.614,0,0,1,1.614,1.614v5.9864A1.6106,1.6106,0,0,1,38.53,26.4579H28.178a1.6106,1.6106,0,0,1-1.6106-1.6106v-5.99A1.6106,1.6106,0,0,1,28.178,17.247Z"/>
<polyline class="a" points="36.54 20.187 36.54 23.518 38.209 23.518"/>
<path class="a" d="M32.3734,23.5179V20.187h1.0848a1.1242,1.1242,0,1,1,0,2.2483H32.3734"/>
<line class="a" x1="33.4998" y1="22.3938" x2="34.5846" y2="23.5179"/>
<path class="a" d="M28.4982,20.1864v2.2068a1.0855,1.0855,0,1,0,2.17,0V20.1864"/>
</g>
</svg>